<svg xmlns="http://www.w3.org/2000/svg" viewBox="0 0 449.28 367.79" height="500" width="500">
  <defs>
    <style>
      .cls-4{fill:#4e3117}.cls-5{fill:#5f391a}
    </style>
  </defs>
  <path fill="#7f4a22" d="M1.49 173.45L114.34 1.87h222.64l109.78 171.58v17.87L332.89 360.85H114.85L1.49 191.83v-18.38z"/>
  <path fill="#70451d" d="M56.52 92.62l24.07-36.59 269.79 265.9-16.46 25.01h-26.05L56.52 92.62z"/>
  <path stroke="#442816" fill="none" stroke-miterlimit="10" stroke-width="4" d="M2 173.57L114.85 2h222.64l109.79 171.57v17.88L333.4 360.98H115.36L2 191.96v-18.39z"/>
  <path class="cls-4" d="M174.68 82.89c0 7.79-7.29 12.72-16.28 12.72s-16.27-4.72-16.27-12.51 7.29-15.7 16.27-15.7 16.28 7.7 16.28 15.49z" transform="translate(-25.62 -55.95)"/>
  <path class="cls-5" d="M174.43 84.46c0 6-7.18 11.15-16 11.15s-16-5.2-16-11.15S149.56 72 158.4 72s16.03 6.52 16.03 12.46z" transform="translate(-25.62 -55.95)"/>
  <path class="cls-4" d="M362.15 82.89c0 7.79-7.29 12.72-16.28 12.72S329.6 90.89 329.6 83.1s7.28-15.7 16.27-15.7 16.28 7.7 16.28 15.49z" transform="translate(-25.62 -55.95)"/>
  <path class="cls-5" d="M361.89 84.46c0 6-7.17 11.15-16 11.15s-16-5.2-16-11.15S337 72 345.87 72s16.02 6.52 16.02 12.46z" transform="translate(-25.62 -55.95)"/>
  <path class="cls-4" d="M462.36 232.7c0 7.79-7.29 12.72-16.27 12.72s-16.28-4.72-16.28-12.51 7.29-15.7 16.28-15.7 16.27 7.7 16.27 15.49z" transform="translate(-25.62 -55.95)"/>
  <path class="cls-5" d="M462.11 234.27c0 5.95-7.18 11.15-16 11.15s-16-5.2-16-11.15 7.18-12.47 16-12.47 16 6.53 16 12.47z" transform="translate(-25.62 -55.95)"/>
  <path class="cls-4" d="M74.28 230.65c0 7.8-7.29 12.73-16.28 12.73s-16.28-4.72-16.28-12.51S49 215.16 58 215.16s16.28 7.7 16.28 15.49z" transform="translate(-25.62 -55.95)"/>
  <path class="cls-5" d="M74 232.23c0 5.94-7.17 11.15-16 11.15s-16-5.21-16-11.15 7.17-12.47 16-12.47 16 6.52 16 12.47z" transform="translate(-25.62 -55.95)"/>
  <path class="cls-4" d="M172.83 383.85c0 7.79-7.29 12.72-16.28 12.72s-16.27-4.72-16.27-12.51 7.28-15.7 16.27-15.7 16.28 7.7 16.28 15.49z" transform="translate(-25.62 -55.95)"/>
  <path class="cls-5" d="M172.57 385.42c0 5.95-7.17 11.15-16 11.15s-16-5.2-16-11.15 7.18-12.47 16-12.47 16 6.52 16 12.47z" transform="translate(-25.62 -55.95)"/>
  <path class="cls-4" d="M361.77 383.85c0 7.79-7.29 12.72-16.28 12.72s-16.28-4.72-16.28-12.51 7.29-15.7 16.28-15.7 16.28 7.7 16.28 15.49z" transform="translate(-25.62 -55.95)"/>
  <path class="cls-5" d="M361.51 385.42c0 5.95-7.17 11.15-16 11.15s-16-5.2-16-11.15 7.17-12.47 16-12.47 16 6.52 16 12.47z" transform="translate(-25.62 -55.95)"/>
  <path fill="#503418" d="M3.02 174.47l111.9 172.47h219L445.4 177.66v13.62l-112 169.7H115.36L3.02 191.96v-17.49z"/>
  <path fill="#362614" d="M115.28 362.7l3.15 5.09 212.76-.34 3.32-6.47-219.94.51h-.09l.8 1.21z"/>
  <path d="M84.3 221.8L158.4 108s5.73-10.38 23.77-9S328 98.85 328 98.85a19.86 19.86 0 0117.28 9.91c6.21 10.55 72 113.62 72 113.62a21.64 21.64 0 01-1.91 21.32C408 254.55 340 357.31 340 357.31s-3.32 5.24-16.47 6.51-142.89 1-142.89 1-16.34 0-20.26-7.49S84.3 238 84.3 238s-4.85-6.47 0-16.2z" transform="translate(-25.62 -55.95)" fill="#396e35"/>
  <path d="M378.26 298.7l-20.17 31-12.28 18.7-209.39-206.61 19-29.27s4.26-8.81 11.25-11.33a40.29 40.29 0 0110.94-2.35h3.15z" transform="translate(-25.62 -55.95)" fill="#7fac7c" opacity=".25"/>
  <path d="M76.61 166.05L143.13 64.2s5.14-9.29 21.33-8.07 130.92-.08 130.92-.08a17.86 17.86 0 0115.51 8.87c5.57 9.44 64.66 101.67 64.66 101.67a19.3 19.3 0 01-1.72 19.08c-6.65 9.71-67.72 101.67-67.72 101.67s-3 4.68-14.78 5.82-128.25.92-128.25.92-14.67 0-18.19-6.7S76.6 180.53 76.6 180.53s-4.34-5.76.01-14.48z" stroke="#e3e427" fill="none" stroke-miterlimit="10" stroke-width="4"/>
</svg>
